HIERARCHY
ROOT Hips
{
	OFFSET -0.001795 -0.223333 0.028219
	CHANNELS 6 Xposition Yposition Zposition Zrotation Yrotation Xrotation 
	JOINT LeftUpLeg
	{
		OFFSET 0.069520 -0.091406 -0.006815
		CHANNELS 3 Zrotation Yrotation Xrotation
		JOINT LeftLeg
		{
			OFFSET 0.034277 -0.375199 -0.004496
			CHANNELS 3 Zrotation Yrotation Xrotation
			JOINT LeftFoot
			{
				OFFSET -0.013596 -0.397961 -0.043693
				CHANNELS 3 Zrotation Yrotation Xrotation
				JOINT LeftToe
				{
					OFFSET 0.026358 -0.055791 0.119288
					CHANNELS 3 Zrotation Yrotation Xrotation
					End Site
					{
						OFFSET 0.000000 0.000000 0.000000
					}
				}
			}
		}
	}
	JOINT RightUpLeg
	{
		OFFSET -0.067670 -0.090522 -0.004320
		CHANNELS 3 Zrotation Yrotation Xrotation
		JOINT RightLeg
		{
			OFFSET -0.038290 -0.382569 -0.008850
			CHANNELS 3 Zrotation Yrotation Xrotation
			JOINT RightFoot
			{
				OFFSET 0.015774 -0.398415 -0.042312
				CHANNELS 3 Zrotation Yrotation Xrotation
				JOINT RightToe
				{
					OFFSET -0.025372 -0.048144 0.123348
					CHANNELS 3 Zrotation Yrotation Xrotation
					End Site
					{
						OFFSET 0.000000 0.000000 0.000000
					}
				}
			}
		}
	}
	JOINT Spine
	{
		OFFSET -0.002533 0.108963 -0.026696
		CHANNELS 3 Zrotation Yrotation Xrotation
		JOINT Spine1
		{
			OFFSET 0.005487 0.135180 0.001092
			CHANNELS 3 Zrotation Yrotation Xrotation
			JOINT Spine2
			{
				OFFSET 0.001457 0.052922 0.025425
				CHANNELS 3 Zrotation Yrotation Xrotation
				JOINT Neck
				{
					OFFSET -0.002778 0.213870 -0.042857
					CHANNELS 3 Zrotation Yrotation Xrotation
					JOINT Head
					{
						OFFSET 0.005152 0.064970 0.051349
						CHANNELS 3 Zrotation Yrotation Xrotation
						End Site
						{
							OFFSET 0.000000 0.000000 0.000000
						}
					}
				}
				JOINT LeftShoulder
				{
					OFFSET 0.078845 0.121749 -0.034090
					CHANNELS 3 Zrotation Yrotation Xrotation
					JOINT LeftArm
					{
						OFFSET 0.090977 0.030469 -0.008868
						CHANNELS 3 Zrotation Yrotation Xrotation
						JOINT LeftForeArm
						{
							OFFSET 0.259612 -0.012772 -0.027456
							CHANNELS 3 Zrotation Yrotation Xrotation
							JOINT LeftHand
							{
								OFFSET 0.249234 0.008986 -0.001171
								CHANNELS 3 Zrotation Yrotation Xrotation
								End Site
								{
									OFFSET 0.000000 0.000000 0.000000
								}
							}
						}
					}
				}
				JOINT RightShoulder
				{
					OFFSET -0.081759 0.118833 -0.038615
					CHANNELS 3 Zrotation Yrotation Xrotation
					JOINT RightArm
					{
						OFFSET -0.096012 0.032551 -0.009143
						CHANNELS 3 Zrotation Yrotation Xrotation
						JOINT RightForeArm
						{
							OFFSET -0.253742 -0.013329 -0.021401
							CHANNELS 3 Zrotation Yrotation Xrotation
							JOINT RightHand
							{
								OFFSET -0.255298 0.007772 -0.005559
								CHANNELS 3 Zrotation Yrotation Xrotation
								End Site
								{
									OFFSET 0.000000 0.000000 0.000000
								}
							}
						}
					}
				}
			}
		}
	}
}
MOTION
Frames: 11
Frame Time: 0.050000
0.000000 0.869776 0.000000 -1.519751 -0.511418 13.350954 10.156888 -0.244171 -42.507974 -18.840051 8.762642 43.484523 13.925428 28.228558 0.999424 0.000000 0.000000 0.000000 -7.467229 2.305664 -51.095712 12.938355 -5.757416 51.765074 -7.674999 -19.457685 -0.692839 0.000000 0.000000 0.000000 5.142185 -2.603464 26.756952 -3.206239 1.282331 -29.581366 -2.544173 2.004784 32.739158 10.689846 -4.001682 -28.821086 0.000000 0.000000 0.000000 -7.215461 18.328989 -8.861517 -49.170259 17.212325 -14.419425 -89.485046 -49.652831 53.771311 0.000000 0.000000 0.000000 19.319090 -26.585540 -16.830066 44.318083 -20.327367 -12.638509 119.134259 48.834025 79.175365 0.000000 0.000000 0.000000 
0.002058 0.863006 -0.002938 -2.645314 -1.793987 15.771197 12.992275 1.147083 -45.162096 -21.653045 10.884115 44.270275 14.828516 29.822867 1.404990 0.000000 0.000000 0.000000 -6.964832 3.166304 -55.656731 13.977256 -6.475647 54.888705 -8.597215 -21.832748 1.523514 0.000000 0.000000 0.000000 4.893666 -2.522866 27.018288 -2.076708 1.079566 -31.044026 -1.896088 3.162144 34.268905 10.374920 -3.535973 -30.278538 0.000000 0.000000 0.000000 -7.400877 21.220205 -10.489157 -49.933731 17.627563 -14.811212 -91.076678 -45.436664 50.531472 0.000000 0.000000 0.000000 19.812980 -28.638564 -18.387667 44.229985 -19.719303 -12.420533 114.267187 48.267830 73.107385 0.000000 0.000000 0.000000 
0.003598 0.859459 -0.005997 -0.998596 -0.663255 16.056006 11.487420 0.280708 -45.284068 -22.457847 10.876232 43.577241 14.473871 29.859504 -1.313856 0.000000 0.000000 0.000000 -8.639830 1.994261 -55.382850 14.436577 -7.006969 54.181686 -9.099487 -23.191956 -2.567993 0.000000 0.000000 0.000000 4.732340 -2.521765 26.861663 -2.530203 1.144137 -28.447023 -3.656194 0.813696 32.315741 9.461297 -3.733171 -27.398372 0.000000 0.000000 0.000000 -6.892232 22.774440 -10.958576 -49.039404 21.162168 -15.523322 -91.764860 -44.551948 50.416210 0.000000 0.000000 0.000000 24.157340 -26.796339 -19.294756 40.910452 -20.295295 -11.438312 115.904206 48.471841 73.580074 0.000000 0.000000 0.000000 
0.004396 0.856700 -0.008913 -0.976241 0.000970 16.836782 11.992491 0.375767 -47.613944 -23.471633 11.770038 45.604503 14.088927 28.860395 0.332195 0.000000 0.000000 0.000000 -8.773377 1.819441 -58.762184 14.491216 -7.572880 56.853720 -9.090869 -22.855044 1.027422 0.000000 0.000000 0.000000 4.816856 -2.733404 28.201382 -3.284707 1.262986 -31.250112 -3.287085 0.972670 34.510760 9.456436 -3.574848 -28.376462 0.000000 0.000000 0.000000 -7.740286 22.905939 -11.384441 -47.108897 21.965435 -15.309362 -95.147802 -42.454351 50.258750 0.000000 0.000000 0.000000 24.578478 -28.320594 -20.527062 39.317548 -22.392368 -11.577666 117.087633 45.696601 70.769580 0.000000 0.000000 0.000000 
0.004789 0.852223 -0.011138 -0.901308 0.867310 17.182180 12.421402 0.350824 -48.439962 -24.360105 12.189960 46.093028 14.414410 29.797464 -0.782016 0.000000 0.000000 0.000000 -8.810715 1.520555 -59.157248 14.402729 -7.638802 56.236679 -9.103810 -22.956906 -0.429157 0.000000 0.000000 0.000000 4.124167 -2.698304 29.448299 -2.093506 1.082665 -30.659370 -3.498139 0.812032 33.516320 8.709835 -3.061834 -28.418516 0.000000 0.000000 0.000000 -7.459654 23.128150 -11.445443 -47.337655 23.684755 -15.945701 -95.318193 -40.702403 47.952702 0.000000 0.000000 0.000000 24.681313 -27.511369 -19.909604 39.304778 -22.987159 -11.685830 115.175344 47.132168 70.784385 0.000000 0.000000 0.000000 
0.004986 0.849104 -0.012211 -0.866585 1.269528 17.612111 13.157922 0.572821 -49.609489 -25.953726 13.139544 46.447721 14.006406 29.097185 -0.945880 0.000000 0.000000 0.000000 -8.862955 1.372610 -60.180818 14.130292 -7.653981 57.035276 -8.658266 -21.942578 -1.702007 0.000000 0.000000 0.000000 4.279972 -2.896739 30.575383 -2.658611 1.164554 -31.874316 -3.239992 1.107894 34.115397 9.008607 -3.113499 -28.769806 0.000000 0.000000 0.000000 -7.541477 22.737998 -11.356460 -46.528794 23.821711 -15.776482 -94.491821 -39.162745 45.263399 0.000000 0.000000 0.000000 24.797568 -27.821786 -20.101908 38.838040 -24.088084 -11.833119 113.928905 46.830711 69.051429 0.000000 0.000000 0.000000 
0.005260 0.845788 -0.012165 -0.977218 1.672665 18.054244 13.708574 0.713065 -50.207322 -26.941085 13.589498 46.233222 14.601069 30.307455 -0.965099 0.000000 0.000000 0.000000 -8.921965 1.216902 -60.828213 14.397612 -7.937183 57.090505 -8.843630 -22.429719 -2.124039 0.000000 0.000000 0.000000 4.063597 -2.888028 30.812233 -2.213697 1.102506 -31.003449 -3.207863 0.911972 33.107880 8.440310 -2.892352 -27.911389 0.000000 0.000000 0.000000 -7.900166 23.293076 -11.746497 -45.392531 24.235344 -15.388067 -94.543465 -38.207548 43.938494 0.000000 0.000000 0.000000 25.117836 -27.091799 -19.711063 38.525791 -23.732563 -11.580029 111.320916 47.506534 67.247121 0.000000 0.000000 0.000000 
0.005875 0.841516 -0.011661 -1.112957 1.561418 18.195876 14.352421 1.027659 -50.566965 -28.241663 14.445267 46.360092 14.900544 31.060104 -1.795635 0.000000 0.000000 0.000000 -8.919585 1.269817 -61.571379 14.532149 -8.150367 58.114130 -9.040549 -22.972836 -2.652355 0.000000 0.000000 0.000000 4.055672 -2.938824 31.434321 -2.259242 1.106323 -31.296465 -2.986404 1.351695 33.218862 8.404461 -2.733115 -28.453835 0.000000 0.000000 0.000000 -7.636190 22.553520 -11.341798 -45.050438 23.572747 -15.091909 -95.068945 -38.005975 43.905967 0.000000 0.000000 0.000000 25.229407 -27.118158 -19.690039 38.056625 -22.583925 -11.126962 110.734393 47.458180 66.799783 0.000000 0.000000 0.000000 
0.006521 0.835539 -0.011726 -1.126726 1.856319 18.145768 14.917456 1.204030 -51.026132 -29.526164 15.265974 46.774798 15.309893 31.924446 -2.065301 0.000000 0.000000 0.000000 -9.005641 1.117397 -62.383549 14.546826 -8.415700 59.363962 -8.921126 -22.659059 -3.088383 0.000000 0.000000 0.000000 3.896285 -2.982547 32.175102 -1.835378 1.044873 -31.514012 -3.123827 1.799708 33.070326 8.909130 -2.809391 -29.185806 0.000000 0.000000 0.000000 -7.514868 22.155827 -11.157968 -44.641854 22.399389 -14.608382 -95.399184 -38.448161 44.373494 0.000000 0.000000 0.000000 26.110709 -26.789820 -19.639556 36.719097 -20.967267 -10.291662 110.114015 47.610324 66.630510 0.000000 0.000000 0.000000 
0.006893 0.830132 -0.012951 -1.243429 2.273770 18.036104 15.455001 1.357180 -51.815636 -30.885741 16.188255 47.434860 15.522239 32.384802 -2.259502 0.000000 0.000000 0.000000 -8.753781 1.106760 -62.938800 14.282823 -8.495304 60.606573 -8.980545 -22.760473 -3.195173 0.000000 0.000000 0.000000 3.883708 -3.142669 33.404918 -1.669466 1.027606 -31.987417 -2.969212 2.214995 33.030313 9.372061 -2.787521 -30.302137 0.000000 0.000000 0.000000 -7.046142 21.755877 -10.874865 -45.143741 21.179892 -14.444065 -95.594431 -39.119288 45.110333 0.000000 0.000000 0.000000 27.035278 -26.580594 -19.672003 36.437325 -19.529007 -9.869083 110.581502 48.679040 68.868986 0.000000 0.000000 0.000000 
0.006943 0.826334 -0.015650 -1.518483 2.114714 18.418327 15.692070 1.553205 -52.629855 -31.322460 16.614715 47.695231 16.096209 33.576119 -2.518371 0.000000 0.000000 0.000000 -8.622617 1.259271 -64.017336 14.337642 -8.555057 61.104422 -9.117590 -23.104348 -2.821084 0.000000 0.000000 0.000000 3.141964 -2.987684 34.899839 -0.851254 0.928614 -32.847094 -2.670721 3.271231 33.055047 9.846317 -2.721641 -31.185352 0.000000 0.000000 0.000000 -6.172514 21.514588 -10.593173 -46.325849 20.141665 -14.575337 -97.192584 -39.840794 46.763306 0.000000 0.000000 0.000000 27.439873 -26.592807 -19.560371 37.217454 -18.359415 -9.835300 111.734375 49.774840 72.125586 0.000000 0.000000 0.000000 
